<svg version="1.0" xmlns="http://www.w3.org/2000/svg" width="1869.000000pt" height="1558.000000pt" viewBox="0 0 1869.000000 1558.000000" preserveAspectRatio="xMidYMid meet">
<metadata>
Created by potrace 1.16, written by Peter Selinger 2001-2019
</metadata>
<g transform="translate(0.000000,1558.000000) scale(0.100000,-0.100000)" fill="#f7f7f7" stroke="none">
<path d="M13419 15313 c-787 -797 -1451 -1614 -2304 -2833 -555 -795 -966 -1316 -1990 -2530 -779 -923 -1156 -1394 -1500 -1875 -206 -288 -459 -684 -580 -907 -39 -73 -51 -88 -71 -88 -13 0 -24 4 -24 9 0 5 -12 14 -27 20 -31 11 -131 67 -150 83 -7 6 -13 7 -13 4 0 -4 -7 0 -16 8 -8 9 -20 14 -25 11 -5 -4 -9 -3 -9 2 0 4 -10 13 -23 19 -12 6 -106 54 -209 106 -103 53 -189 93 -192 90 -4 -3 -6 0 -6 6 0 7 -6 12 -12 12 -7 0 -40 14 -73 30 -33 16 -66 30 -72 30 -7 0 -13 5 -13 10 0 6 -9 10 -19 10 -11 0 -23 5 -26 10 -4 6 -11 8 -16 5 -5 -4 -9 -2 -9 4 0 5 -10 13 -22 17 -13 3 -50 19 -83 34 -33 15 -76 35 -97 43 -20 8 -39 24 -43 36 -3 11 -23 27 -44 37 -20 9 -41 25 -47 37 -5 11 -28 27 -51 36 -35 12 -44 12 -58 1 -14 -11 -14 -15 -1 -29 26 -29 29 -90 8 -182 -18 -80 -18 -88 -3 -113 9 -16 40 -39 74 -54 55 -25 58 -29 53 -57 -3 -16 -43 -106 -90 -199 -47 -93 -81 -165 -77 -160 5 5 47 62 94 126 101 137 121 153 178 144 80 -13 313 -148 707 -412 57 -38 117 -76 133 -86 17 -9 38 -23 47 -31 9 -8 73 -52 142 -99 132 -89 424 -296 556 -395 43 -32 133 -99 199 -148 66 -49 126 -95 133 -102 14 -13 207 -165 251 -198 67 -49 290 -242 328 -284 28 -31 33 -44 33 -88 0 -30 -10 -79 -24 -118 -13 -36 -22 -65 -20 -65 15 0 146 301 181 415 32 104 31 103 32 85 1 -9 -12 -68 -28 -133 -17 -71 -26 -129 -22 -146 3 -15 24 -49 46 -74 22 -26 43 -58 46 -71 8 -27 -22 -118 -73 -221 -59 -122 -60 -132 -4 -50 54 78 119 135 154 135 17 0 48 -14 73 -32 63 -45 205 -191 271 -278 53 -71 362 -385 438 -446 19 -16 80 -67 135 -114 55 -47 112 -95 126 -105 72 -54 309 -279 309 -293 -1 -32 -69 -184 -136 -300 -205 -359 -505 -689 -799 -881 l-80 -52 -8 38 c-5 21 -6 60 -3 86 l5 48 -82 53 c-45 29 -201 127 -347 218 -146 91 -343 216 -439 277 -95 61 -177 111 -182 111 -4 0 1 -26 12 -57 18 -53 361 -1137 443 -1403 40 -129 69 -250 63 -257 -3 -2 -82 229 -177 514 -95 285 -179 524 -188 530 -9 7 -21 13 -28 13 -6 0 -150 -155 -320 -344 -170 -190 -313 -345 -318 -345 -4 -1 -34 21 -65 47 -75 65 -232 180 -307 225 -34 20 -66 43 -71 49 -7 9 6 97 38 268 102 552 120 652 117 654 -2 0 -52 34 -112 75 -73 50 -126 78 -165 88 -31 8 -66 21 -78 29 -28 18 -33 18 -33 -1 0 -21 -8 -19 -47 11 -23 18 -32 31 -28 43 4 13 -6 26 -35 46 -71 49 -69 60 8 79 37 9 118 42 181 73 97 47 126 68 192 134 99 99 145 190 195 384 32 126 36 153 36 270 -1 264 -27 406 -103 557 -163 323 -392 497 -696 526 -101 10 -116 7 -102 -19 13 -26 2 -40 -51 -64 -22 -10 -42 -26 -45 -37 -13 -38 -61 -50 -234 -58 -205 -10 -322 -38 -466 -109 -157 -78 -253 -171 -324 -312 -41 -80 -104 -250 -96 -258 6 -5 3 -10 40 64 46 93 177 218 290 277 447 232 1107 106 1481 -283 82 -85 144 -177 174 -255 11 -30 20 -59 20 -64 0 -13 -38 -3 -57 15 -10 11 -27 15 -45 13 -28 -5 -29 -4 -32 40 -1 7 -6 16 -12 20 -6 4 -15 18 -19 32 -4 14 -18 36 -30 50 -13 14 -33 35 -44 48 -12 12 -21 24 -21 27 0 6 -45 48 -92 87 -83 68 -96 78 -101 78 -3 0 -26 13 -50 30 -25 17 -50 30 -55 30 -6 0 -26 9 -45 20 -49 29 -188 75 -300 99 -68 15 -136 22 -225 22 -189 2 -305 -22 -437 -88 -204 -103 -314 -255 -323 -448 -3 -80 0 -100 26 -177 88 -260 312 -467 624 -577 134 -47 244 -65 398 -65 293 0 530 104 650 287 58 89 87 196 93 347 1 33 6 53 12 50 6 -3 8 -9 6 -15 -2 -5 -3 -19 -1 -30 4 -39 3 -180 -2 -200 -3 -11 -8 -29 -12 -40 -5 -11 -13 -33 -19 -50 -38 -104 -169 -233 -302 -297 -138 -66 -223 -82 -425 -83 -191 0 -275 14 -439 75 -105 38 -300 139 -342 176 -8 8 -20 14 -25 14 -5 0 -16 9 -24 20 -8 11 -20 20 -28 20 -7 0 -15 7 -18 15 -4 8 -12 15 -20 15 -8 0 -14 3 -14 8 0 4 -16 16 -35 26 -47 26 -113 105 -160 193 -21 40 -40 71 -42 69 -5 -5 36 -108 49 -123 5 -7 6 -18 2 -24 -4 -8 -3 -9 4 -5 7 4 12 3 12 -2 0 -12 100 -145 117 -155 7 -5 10 -13 7 -19 -4 -6 -3 -8 3 -5 11 7 36 -16 28 -25 -3 -3 2 -11 12 -19 15 -12 16 -12 8 1 -5 8 16 -6 46 -33 82 -72 88 -77 97 -77 5 0 17 -9 27 -20 10 -11 21 -17 25 -15 4 3 13 -2 20 -10 7 -8 16 -12 21 -9 5 3 9 0 9 -6 0 -6 4 -8 10 -5 6 3 10 2 10 -2 0 -9 72 -43 91 -43 5 0 7 -5 3 -12 -4 -7 -3 -8 4 -4 6 3 39 -5 73 -19 34 -14 66 -25 70 -25 4 0 20 -5 36 -11 15 -7 37 -13 48 -15 11 -1 54 -11 95 -20 52 -12 125 -18 235 -20 l160 -2 7 -28 c3 -16 11 -63 18 -105 26 -178 121 -557 206 -819 33 -104 43 -150 39 -172 -4 -17 -3 -33 2 -37 23 -16 54 -75 93 -181 302 -807 797 -1643 1358 -2293 l84 -97 128 0 128 0 48 40 c69 57 243 144 349 174 243 68 409 60 786 -39 89 -24 99 -21 144 42 59 84 188 210 285 280 91 65 134 88 390 212 117 57 180 94 218 129 l53 48 -49 1 c-170 2 -249 218 -119 323 17 14 28 15 56 8 93 -26 175 -88 212 -161 23 -45 28 -44 30 4 2 18 6 39 9 44 12 17 48 135 80 262 16 67 34 133 39 146 9 22 5 28 -30 52 -21 15 -39 30 -39 34 1 3 33 29 72 56 92 64 245 216 332 327 65 84 69 88 107 88 74 0 126 -44 113 -95 -8 -31 7 -32 70 -5 25 10 81 26 123 34 67 13 89 13 157 1 66 -12 91 -22 148 -61 79 -53 211 -197 239 -258 10 -22 19 -58 19 -79 l0 -38 29 22 c70 52 226 5 337 -100 70 -66 170 -200 198 -264 13 -29 31 -78 40 -109 9 -31 20 -59 25 -62 5 -3 13 13 19 37 31 119 22 223 -21 257 -33 26 -67 97 -67 140 0 29 -9 43 -55 87 -50 47 -57 59 -75 126 -55 219 -219 390 -430 450 -30 9 -93 19 -140 22 -114 9 -130 16 -164 78 -16 28 -38 62 -48 74 -11 12 -18 26 -14 31 11 18 184 35 304 29 178 -9 315 -42 482 -118 98 -44 133 -43 196 8 20 15 45 33 57 38 99 48 102 50 109 85 9 45 -8 110 -28 110 -9 0 -32 -18 -51 -40 -20 -22 -40 -40 -45 -40 -4 0 -8 15 -8 33 0 28 15 47 122 152 207 202 368 344 473 416 114 78 175 131 175 153 0 24 41 56 72 56 21 0 45 17 102 75 127 128 245 208 476 322 249 122 637 273 702 273 18 0 47 -9 63 -20 47 -31 71 -26 94 18 24 47 46 62 131 91 113 39 410 102 615 130 150 21 455 42 619 42 349 1 819 -49 1104 -116 57 -14 110 -25 117 -25 8 0 51 25 96 55 153 105 394 211 564 250 39 9 87 21 108 26 l37 10 0 1163 0 1163 -38 34 c-21 19 -52 52 -68 74 -16 22 -33 43 -38 46 -5 4 -5 12 -2 18 4 6 2 11 -5 11 -6 0 -9 8 -6 20 3 11 1 23 -4 26 -5 3 -7 10 -4 15 4 5 3 9 -2 9 -4 0 -9 30 -11 67 -2 37 -6 70 -10 73 -12 8 -10 74 1 82 8 5 6 9 -5 13 -10 4 -14 14 -11 26 3 11 -2 28 -11 38 -9 10 -14 25 -10 35 4 11 -25 2 -107 -35 -411 -184 -969 -406 -990 -394 -5 4 -9 2 -9 -3 0 -27 -931 -303 -973 -289 -6 2 16 9 49 16 134 30 642 187 900 279 306 110 926 366 1032 427 42 25 9 12 -153 -60 -170 -75 -706 -290 -751 -301 -16 -4 -34 -10 -39 -15 -6 -4 -22 -10 -35 -13 -14 -3 -112 -35 -218 -71 -494 -167 -892 -264 -1274 -310 -192 -23 -223 -36 -73 -30 127 4 264 22 433 56 57 11 106 19 108 16 13 -12 -353 -73 -530 -87 -229 -19 -411 12 -514 87 -50 37 -65 75 -60 157 7 137 87 263 295 467 140 137 311 277 516 422 130 93 359 245 381 253 8 3 15 -38 24 -133 l12 -138 -32 -25 c-228 -176 -384 -326 -460 -440 -47 -72 -49 -78 -46 -132 8 -111 75 -142 303 -141 215 0 443 44 825 158 351 105 1028 371 1004 395 -5 5 -27 12 -49 16 -22 3 -42 10 -43 15 -2 5 -8 7 -13 3 -5 -3 -9 0 -9 5 0 6 -7 11 -16 11 -8 0 -13 4 -9 9 3 5 -4 12 -15 16 -11 3 -20 10 -20 14 0 4 -22 18 -50 31 -27 13 -52 32 -56 42 -3 10 -11 18 -18 18 -16 0 -106 82 -106 96 0 5 -9 16 -20 24 -11 8 -20 22 -20 32 0 10 -5 15 -13 12 -13 -5 -44 23 -40 35 5 11 -8 41 -18 41 -5 0 -9 5 -9 11 0 6 -9 23 -20 39 -11 15 -16 31 -12 35 4 5 1 5 -5 1 -8 -4 -13 -1 -13 8 0 8 -7 22 -16 30 -8 9 -13 16 -9 16 3 0 -1 10 -9 22 -9 12 -16 31 -16 41 0 10 -9 32 -21 48 -11 16 -18 29 -15 29 3 0 -1 18 -9 40 -8 22 -14 41 -14 43 0 1 -4 15 -10 30 -6 16 -11 32 -11 37 0 5 -9 14 -20 20 -14 7 -20 21 -20 43 0 18 -7 45 -15 61 -18 33 -19 39 -5 31 14 -9 12 2 -4 28 -8 12 -17 51 -21 87 -4 36 -12 71 -18 78 -6 7 -11 39 -11 70 -1 31 -4 62 -7 67 -4 6 -5 31 -5 58 1 26 -1 47 -4 47 -3 0 -5 14 -5 30 0 17 2 30 5 30 3 0 6 24 6 54 1 44 -2 53 -14 48 -9 -3 -13 -1 -9 5 6 10 -7 20 -31 24 -4 0 -14 5 -23 10 -20 10 -150 -54 -219 -108 -25 -19 -14 -7 24 28 401 372 973 498 1501 332 44 -14 108 -38 143 -54 l62 -28 0 3185 0 3184 -2503 0 -2504 0 -264 -267z m3096 94 c45 -25 85 -92 85 -142 0 -54 -40 -117 -90 -142 -56 -29 -104 -29 -155 0 -70 39 -103 129 -74 204 34 92 146 130 234 80z m1349 -1318 c20 -16 26 -29 26 -58 0 -48 -28 -75 -77 -75 -68 0 -98 80 -48 129 30 30 64 32 99 4z m-4552 -1853 c76 -17 121 -37 161 -74 74 -69 -7 -172 -160 -203 -35 -7 -63 -17 -63 -21 0 -4 27 -45 59 -90 48 -67 57 -86 49 -101 -8 -16 -7 -17 11 -8 26 14 31 14 31 -4 0 -8 5 -15 11 -15 5 0 8 4 5 8 -3 4 10 7 27 6 18 -2 65 8 105 22 107 35 114 34 156 -33 l36 -58 -33 -7 c-42 -9 -222 -92 -231 -107 -11 -17 92 -181 109 -174 8 3 15 8 15 12 0 18 242 109 248 93 1 -4 18 -32 37 -61 19 -29 35 -56 35 -59 0 -4 22 -20 50 -35 53 -30 74 -61 264 -385 43 -73 83 -135 89 -139 5 -3 8 -2 5 3 -3 5 -40 67 -82 137 -42 71 -77 132 -79 137 -1 6 68 44 152 85 115 55 157 72 163 62 5 -6 40 -64 78 -128 60 -99 74 -117 94 -115 29 1 31 -5 -65 154 -38 61 -69 115 -69 118 0 5 283 144 294 144 2 0 35 -51 72 -112 94 -158 87 -148 106 -134 16 12 10 24 -57 136 -41 68 -75 126 -75 129 0 4 63 36 140 73 l140 66 22 -36 c112 -186 129 -211 143 -205 8 3 15 9 15 14 0 5 -32 61 -71 125 -39 64 -67 119 -63 123 29 24 256 123 263 115 5 -5 84 -130 174 -279 l166 -269 -132 -73 c-117 -64 -133 -70 -141 -55 -5 9 -38 64 -73 122 -52 85 -68 105 -88 105 -13 1 -22 -2 -21 -5 2 -3 36 -59 76 -125 40 -66 74 -123 76 -127 2 -3 -40 -30 -93 -58 -54 -29 -116 -63 -139 -76 l-40 -24 -78 129 c-64 106 -81 128 -97 124 -10 -3 -19 -8 -19 -10 0 -3 34 -61 75 -130 41 -68 73 -128 70 -133 -3 -5 -49 -32 -103 -61 -53 -28 -116 -62 -138 -76 l-41 -23 -84 140 c-62 103 -86 136 -92 125 -4 -9 -12 -13 -18 -10 -17 11 -10 -2 71 -137 46 -76 76 -136 71 -141 -5 -5 -73 -44 -152 -87 l-143 -78 -44 72 c-24 39 -62 102 -84 139 -22 38 -42 67 -44 64 -3 -2 54 -101 125 -220 71 -119 137 -229 146 -246 9 -19 23 -31 35 -31 18 0 44 -32 79 -97 21 -41 5 -24 -27 26 -27 44 -35 50 -69 53 -46 4 -58 -1 -245 -109 -106 -61 -145 -88 -141 -99 4 -12 8 -12 22 -2 14 11 14 11 3 -3 -9 -12 -10 -24 -2 -43 12 -33 -10 -93 -37 -103 -36 -12 -179 -83 -240 -118 -111 -64 -67 -29 70 55 178 111 201 138 160 189 l-18 22 -77 -46 c-42 -25 -82 -45 -88 -45 -5 0 -10 19 -10 41 0 32 -3 39 -12 31 -14 -11 -86 -52 -92 -52 -2 0 -6 10 -9 22 -5 18 -9 19 -21 9 -16 -13 -28 2 -87 107 -17 30 -29 41 -42 38 -22 -5 -44 31 -28 47 11 11 16 149 5 160 -4 3 -16 -1 -29 -9 -21 -14 -23 -12 -50 30 -24 38 -31 43 -47 35 -10 -5 -17 -15 -15 -22 1 -7 -7 -11 -20 -10 -13 2 -23 1 -23 -2 0 -2 40 -72 89 -154 77 -130 87 -152 73 -160 -14 -8 -14 -11 -2 -28 13 -17 13 -17 -4 -2 -17 15 -27 12 -151 -57 -74 -40 -147 -80 -164 -88 l-29 -16 -92 157 c-72 121 -95 152 -102 140 -4 -9 -15 -14 -23 -11 -8 4 -15 4 -15 1 0 -4 38 -71 85 -151 46 -79 86 -149 87 -155 2 -7 -82 -59 -187 -116 -173 -95 -191 -102 -203 -87 -7 9 -50 81 -95 159 -74 128 -102 167 -95 131 2 -8 -6 -12 -19 -11 -13 2 -23 0 -23 -2 0 -3 41 -75 90 -159 50 -85 90 -158 90 -163 0 -8 -391 -223 -406 -223 -5 0 -52 75 -104 167 -53 93 -96 159 -98 150 -3 -17 -14 -21 -40 -18 -16 2 -14 -2 97 -194 44 -77 77 -143 73 -146 -11 -11 -434 -240 -436 -237 -26 39 -426 748 -426 755 0 7 193 103 441 220 4 1 48 -70 99 -160 51 -89 94 -164 96 -166 2 -3 10 4 18 14 7 10 18 15 24 11 24 -15 9 17 -79 170 -50 86 -87 160 -82 164 13 13 413 204 417 199 2 -2 40 -69 86 -149 46 -80 89 -152 96 -160 12 -12 14 -12 14 4 0 13 5 17 20 13 11 -3 20 -2 20 2 0 3 -34 65 -76 136 -42 72 -82 143 -90 158 l-15 28 197 95 c109 52 201 91 204 87 4 -5 47 -75 96 -158 58 -98 90 -144 92 -132 3 13 10 17 23 14 22 -6 9 20 -106 213 l-56 95 178 87 c98 48 183 87 190 87 6 1 44 -54 83 -121 108 -184 101 -174 112 -154 6 11 16 15 28 11 50 -16 28 57 -32 105 -56 45 -74 95 -80 218 -4 79 -9 106 -23 122 -10 11 -22 17 -26 14 -5 -3 -9 0 -9 5 0 6 -7 11 -15 11 -15 0 -20 14 -30 93 -5 36 -26 81 -81 172 -83 139 -123 180 -164 171 -23 -4 -29 0 -43 30 -24 49 -22 59 20 101 34 34 83 98 83 108 0 3 -7 5 -16 5 -9 0 -31 15 -50 34 -50 50 -47 87 11 143 25 24 49 43 54 43 15 0 34 -58 27 -84 -8 -31 24 -56 70 -56 28 0 33 4 39 31 8 37 -6 57 -25 34 -28 -33 -71 0 -67 53 3 41 28 43 63 5 l25 -27 -10 26 c-14 37 -58 119 -74 141 -8 9 -21 17 -29 17 -9 0 -21 7 -28 14 -6 8 -36 20 -66 27 -130 29 -211 101 -183 163 36 78 223 117 391 82z m-753 -72 c1 -13 14 -26 38 -38 l38 -18 -38 -19 c-32 -17 -37 -24 -37 -54 0 -41 -8 -44 -39 -11 -19 20 -29 23 -59 19 -32 -6 -35 -4 -28 13 17 41 17 53 1 84 l-17 33 41 -6 c36 -4 44 -2 64 22 18 23 23 25 29 12 4 -9 7 -25 7 -37z m1201 -524 c0 -5 -4 -10 -10 -10 -5 0 -10 -7 -10 -15 0 -9 9 -15 24 -15 17 0 31 -11 46 -35 26 -42 22 -60 -17 -69 -15 -4 -69 -27 -119 -50 l-91 -43 -39 65 c-22 36 -40 69 -42 73 -4 10 40 33 143 76 83 34 115 40 115 23z m4613 -247 c28 -31 30 -66 7 -96 -42 -53 -130 -24 -130 43 0 17 9 39 20 50 25 25 81 26 103 3z m-3717 -1488 c-11 -8 -24 -15 -30 -15 -5 0 -7 -2 -4 -5 3 -3 17 0 31 6 23 11 32 9 68 -17 22 -15 57 -48 77 -72 31 -38 34 -45 20 -58 -27 -28 -141 -93 -151 -87 -6 3 -7 34 -4 73 5 61 3 72 -20 108 -17 26 -32 38 -42 35 -9 -2 2 7 24 21 43 28 62 34 31 11z m-296 -250 c51 -37 110 -99 110 -115 0 -8 -129 -90 -142 -90 -3 0 -11 13 -18 29 -12 31 -5 56 24 80 14 12 14 16 0 45 -9 17 -23 39 -31 48 -13 15 -11 38 4 38 3 0 27 -16 53 -35z m-306 -446 c56 -26 53 -105 -4 -129 -80 -33 -135 90 -56 128 28 14 31 14 60 1z m-3691 -625 c165 -53 237 -94 237 -134 0 -34 45 -73 134 -117 78 -38 98 -44 136 -40 54 6 93 -14 136 -70 15 -20 22 -33 14 -28 -21 13 -6 -28 36 -99 21 -35 44 -62 50 -59 7 2 19 -6 28 -19 9 -12 16 -18 16 -13 0 14 84 -123 125 -204 71 -142 41 -116 -139 122 -32 42 -60 77 -62 77 -2 0 3 -17 12 -37 29 -70 29 -66 7 -55 -26 14 -34 6 -27 -24 13 -53 -25 -21 -72 60 -47 82 -69 107 -72 83 0 -7 -4 -32 -8 -56 l-7 -44 -19 37 c-10 20 -22 36 -27 36 -5 0 -11 -21 -15 -46 -8 -61 -40 -116 -90 -156 -37 -30 -48 -33 -126 -38 -80 -5 -85 -6 -88 -29 -5 -31 47 -85 113 -118 86 -43 90 -51 89 -141 -1 -62 -7 -87 -25 -121 -13 -24 -28 -51 -33 -61 -5 -10 -24 -25 -42 -35 -18 -10 -33 -20 -32 -24 1 -3 -4 -19 -11 -36 -7 -16 -10 -41 -6 -55 17 -65 13 -74 -34 -82 -75 -13 -167 -48 -189 -71 -42 -44 -82 -152 -82 -217 0 -34 5 -70 11 -81 14 -28 2 -62 -19 -54 -50 21 -108 17 -172 -12 -72 -33 -95 -50 -181 -138 -63 -65 -63 -62 1 -97 27 -16 29 -19 18 -38 -23 -38 -75 -63 -118 -57 -32 4 -53 20 -145 116 -78 80 -117 113 -143 121 -54 15 -62 2 -62 -99 0 -66 -6 -103 -26 -162 -24 -71 -30 -80 -78 -112 -64 -43 -78 -46 -163 -37 -76 8 -89 6 -48 -10 16 -6 69 -39 119 -73 50 -35 111 -75 136 -89 50 -29 80 -72 63 -89 -13 -13 -133 14 -193 45 -32 16 -52 35 -70 68 -35 65 -52 81 -161 159 -151 107 -259 227 -357 394 -25 44 -70 106 -98 139 -97 108 -137 231 -138 431 -1 126 0 132 31 200 l32 70 -23 25 c-13 14 -29 36 -37 50 -39 76 20 303 117 450 28 42 64 65 119 75 42 7 46 11 152 155 136 185 327 328 527 396 38 13 84 24 103 24 18 0 68 10 110 22 82 23 213 29 423 18 88 -5 98 -3 124 18 40 31 87 28 219 -14z m1960 -1926 c23 -27 22 -59 -4 -92 -47 -59 -140 -11 -124 65 13 56 89 73 128 27z m-1199 -1366 c119 -115 180 -165 299 -245 l98 -66 -33 -14 c-18 -8 -323 -145 -678 -305 -756 -340 -774 -348 -800 -336 -11 5 -150 137 -310 292 -454 445 -529 512 -566 512 -11 0 -14 3 -8 9 5 5 155 28 334 50 394 49 1459 178 1515 184 22 2 44 4 49 5 5 1 50 -38 100 -86z m-5581 -240 c-101 -96 -139 -196 -131 -345 4 -79 10 -103 41 -171 109 -235 369 -414 680 -467 100 -17 308 -7 379 18 148 51 337 203 403 323 27 50 30 63 29 140 -1 58 -8 104 -23 145 -23 67 -7 55 33 -25 47 -92 59 -145 47 -212 -28 -159 -135 -291 -301 -371 -131 -63 -223 -82 -390 -81 -355 1 -693 168 -864 426 -136 204 -132 458 7 584 41 36 126 91 146 94 2 0 -24 -26 -56 -58z m5690 -714 c34 -18 46 -40 47 -85 0 -34 -5 -46 -31 -67 -17 -14 -42 -26 -55 -26 -64 0 -113 58 -99 119 13 58 83 89 138 59z m-992 -1602 l34 -15 -61 -59 c-34 -33 -80 -70 -103 -81 l-40 -21 -17 25 c-17 26 -17 26 57 95 41 38 79 69 85 70 7 0 27 -6 45 -14z m123 -96 c14 -5 26 -14 26 -19 0 -16 -97 -108 -153 -146 -62 -42 -90 -44 -105 -10 -11 23 -7 28 84 96 52 39 97 75 100 80 7 11 17 11 48 -1z m-3369 -211 c110 -89 202 -163 205 -166 14 -15 -75 37 -150 87 -73 49 -120 85 -263 201 -18 15 -17 39 1 39 4 0 97 -73 207 -161z m3515 87 c0 -33 -215 -206 -256 -206 -7 0 -19 12 -29 26 -16 25 -16 28 -1 36 9 5 52 37 97 71 141 109 138 107 165 95 13 -6 24 -16 24 -22z m-1411 -13 c96 -72 96 -204 0 -275 -14 -11 -44 -22 -67 -25 l-42 -6 0 84 c0 46 -3 122 -7 168 l-6 84 48 -5 c26 -3 59 -15 74 -25z m1516 -77 c17 -13 17 -15 -11 -51 -46 -60 -224 -195 -258 -195 -10 0 -36 32 -36 45 0 8 37 41 83 74 45 33 102 78 127 100 49 43 66 48 95 27z m125 -101 l25 -14 -90 -88 c-93 -90 -205 -166 -239 -161 -10 2 -25 13 -33 24 -13 20 -10 24 50 63 35 23 104 75 153 116 49 41 94 74 99 74 6 0 21 -6 35 -14z m119 -102 l22 -18 -51 -57 c-59 -67 -196 -173 -258 -200 -41 -19 -45 -19 -63 -2 -10 9 -19 22 -19 28 0 6 35 34 78 63 42 28 117 85 166 127 48 42 92 76 96 76 4 0 17 -8 29 -17z m126 -107 c18 -13 15 -18 -55 -91 -110 -113 -256 -215 -308 -215 -20 0 -42 18 -42 36 0 6 35 34 78 62 42 27 122 89 177 135 55 47 107 86 116 86 8 1 24 -5 34 -13z m135 -111 c24 -25 24 -26 7 -58 -49 -90 -160 -187 -292 -255 -94 -49 -107 -49 -138 -8 -15 19 -27 37 -27 40 0 3 33 26 73 52 88 57 161 113 251 193 38 33 77 61 86 61 9 0 27 -11 40 -25z m-2687 -353 c45 -37 151 -123 235 -191 136 -110 177 -146 140 -125 -135 76 -292 187 -421 297 -44 37 -83 67 -88 67 -5 0 -9 4 -9 8 0 4 14 9 30 10 25 2 47 -11 113 -66z"/>
<path d="M15323 11625 c-62 -29 -113 -57 -113 -62 0 -7 83 -147 95 -161 3 -3 225 105 234 114 5 5 -90 164 -97 164 -4 -1 -58 -25 -119 -55z"/>
<path d="M15008 11473 c-65 -31 -118 -60 -118 -64 0 -6 80 -145 96 -167 1 -2 59 25 128 59 l126 63 -27 45 c-49 85 -73 121 -81 121 -4 0 -60 -26 -124 -57z"/>
<path d="M15438 11440 c-115 -59 -117 -60 -106 -85 7 -15 20 -25 32 -25 24 0 52 -35 36 -45 -14 -9 -12 -27 5 -49 13 -17 19 -15 129 44 64 34 115 65 113 68 -15 26 -90 152 -91 151 0 0 -54 -27 -118 -59z"/>
<path d="M14681 11315 l-133 -65 28 -48 c15 -26 39 -66 53 -89 l26 -42 130 66 c72 36 131 66 132 67 1 0 -22 40 -51 89 l-53 87 -132 -65z"/>
<path d="M15118 11280 l-117 -60 16 -28 c11 -19 23 -28 34 -25 22 6 48 -36 30 -47 -14 -8 5 -60 22 -60 5 0 63 28 128 62 l118 61 -14 28 c-10 18 -20 26 -32 23 -24 -6 -51 35 -32 47 11 6 11 12 -1 33 -7 14 -18 26 -24 25 -6 0 -64 -27 -128 -59z"/>
<path d="M15552 11266 c-57 -30 -108 -58 -113 -63 -5 -5 11 -42 42 -91 l50 -83 112 60 c62 33 112 66 112 73 0 16 -85 158 -94 158 -3 -1 -53 -25 -109 -54z"/>
<path d="M14325 11145 c-81 -40 -129 -69 -127 -77 2 -7 26 -50 53 -95 l50 -82 137 71 c75 39 138 71 139 72 6 5 -103 176 -112 175 -5 0 -68 -29 -140 -64z"/>
<path d="M14795 11118 c-66 -33 -121 -62 -123 -63 -2 -2 4 -17 12 -33 11 -22 21 -29 35 -25 22 6 54 -38 32 -45 -15 -5 -14 -23 4 -48 14 -21 16 -20 142 44 70 36 130 66 132 68 2 2 -4 15 -13 29 -12 18 -23 24 -35 20 -23 -7 -50 43 -29 56 10 6 9 13 -2 33 -7 14 -18 26 -24 25 -6 0 -65 -27 -131 -61z"/>
<path d="M15233 11099 c-62 -33 -113 -65 -113 -70 0 -10 76 -136 94 -156 8 -9 37 2 121 48 61 34 114 65 119 69 10 10 -83 170 -99 170 -5 0 -61 -28 -122 -61z"/>
<path d="M14455 10943 c-71 -36 -132 -67 -135 -70 -2 -2 2 -16 11 -31 10 -18 22 -26 35 -24 27 4 51 -43 28 -52 -13 -5 -13 -10 3 -36 11 -20 23 -28 33 -25 26 11 260 136 260 140 0 2 -5 15 -12 29 -8 19 -17 24 -32 20 -28 -7 -53 30 -35 52 9 12 9 20 -1 39 -7 14 -16 25 -19 24 -3 0 -64 -30 -136 -66z"/>
<path d="M14950 10953 c-47 -25 -104 -56 -127 -69 l-42 -24 53 -88 c29 -48 55 -87 57 -87 3 0 62 31 132 69 l128 68 -22 37 c-58 99 -84 140 -89 139 -3 0 -43 -21 -90 -45z"/>
<path d="M14565 10750 c-76 -41 -129 -75 -127 -82 2 -7 26 -50 53 -95 l50 -82 72 40 c40 22 100 54 135 72 34 17 62 36 62 42 0 15 -99 175 -108 175 -4 -1 -65 -32 -137 -70z"/>
<path d="M13198 10601 c-86 -42 -160 -80 -164 -83 -4 -4 19 -52 51 -107 l57 -100 164 82 c90 45 164 85 164 89 0 7 -110 199 -113 197 -1 0 -73 -35 -159 -78z"/>
<path d="M12751 10385 c-134 -66 -172 -88 -167 -100 5 -14 104 -185 111 -193 2 -3 343 164 353 172 3 4 -112 205 -118 205 -3 0 -83 -38 -179 -84z"/>
<path d="M13325 10378 c-88 -44 -162 -82 -165 -85 -2 -2 3 -16 13 -31 11 -19 23 -26 40 -24 17 1 28 -5 37 -24 13 -23 13 -27 -4 -39 -18 -14 -16 -21 20 -74 2 -2 31 12 66 32 35 19 109 58 166 87 l102 52 -17 29 c-13 22 -23 29 -38 25 -28 -7 -60 46 -37 60 13 9 13 14 -2 42 -9 18 -18 32 -19 31 -1 0 -74 -36 -162 -81z"/>
<path d="M12283 10160 c-101 -49 -183 -93 -183 -97 0 -8 69 -131 106 -190 l14 -23 185 92 c102 51 185 97 185 102 0 12 -113 206 -120 205 -3 0 -87 -41 -187 -89z"/>
<path d="M13447 10166 c-87 -46 -159 -87 -159 -92 -1 -15 106 -194 116 -194 5 0 80 38 166 86 l158 85 -56 99 c-32 55 -59 99 -62 99 -3 0 -76 -38 -163 -83z"/>
<path d="M12881 10154 c-91 -47 -166 -86 -168 -88 -2 -2 4 -17 14 -35 12 -20 23 -29 33 -25 27 10 30 9 47 -18 16 -26 16 -28 -1 -41 -17 -13 -17 -15 -2 -45 9 -18 18 -32 20 -32 8 0 331 171 339 179 5 5 1 23 -7 40 -15 27 -19 30 -37 20 -11 -6 -22 -9 -23 -7 -37 56 -37 57 -16 68 20 11 20 12 3 40 -9 17 -22 30 -28 29 -5 0 -84 -39 -174 -85z"/>
<path d="M13015 9940 c-93 -49 -170 -93 -170 -99 0 -15 109 -201 118 -201 14 0 346 183 343 189 -19 35 -118 201 -119 200 -1 0 -78 -40 -172 -89z"/>
<path d="M11773 9915 l-192 -94 62 -110 c34 -61 65 -111 70 -111 7 0 387 188 396 196 9 8 -115 214 -129 213 -8 0 -101 -43 -207 -94z"/>
<path d="M12418 9919 c-98 -49 -178 -95 -178 -102 0 -6 9 -23 19 -36 15 -19 21 -21 38 -13 16 9 22 6 38 -21 10 -17 14 -32 9 -34 -33 -12 -35 -20 -14 -56 l22 -37 61 34 c34 18 116 62 182 96 66 35 122 65 125 67 2 2 -4 19 -14 38 -15 28 -22 33 -37 25 -25 -14 -27 -13 -44 20 -14 27 -14 30 5 40 20 11 20 12 3 40 -9 17 -22 30 -28 29 -5 0 -90 -40 -187 -90z"/>
<path d="M12550 9696 c-109 -58 -175 -99 -174 -108 1 -8 27 -58 58 -111 l57 -97 32 16 c76 40 323 177 330 183 9 9 -104 210 -118 210 -5 0 -89 -42 -185 -93z"/>
<path d="M11923 9672 c-106 -53 -193 -100 -193 -105 0 -6 85 -160 108 -195 7 -10 56 12 203 89 107 55 196 103 199 105 2 3 -4 20 -14 39 -16 29 -22 33 -38 24 -37 -20 -75 41 -41 66 17 13 17 15 1 42 -9 15 -20 28 -25 30 -4 1 -95 -42 -200 -95z"/>
<path d="M12060 9440 c-102 -55 -189 -101 -193 -102 -6 -3 97 -197 119 -227 5 -6 386 203 390 214 6 14 -108 214 -121 214 -5 0 -93 -45 -195 -99z"/>
<path d="M8883 6756 c-40 -18 -66 -68 -67 -128 -1 -38 5 -53 30 -85 25 -30 38 -38 60 -36 33 3 50 23 64 75 15 55 55 96 108 111 l47 14 -54 27 c-65 33 -143 42 -188 22z"/>
<path d="M1900 9251 c-14 -27 -13 -36 3 -23 9 8 60 -26 202 -137 105 -81 319 -246 476 -368 288 -223 317 -248 305 -260 -9 -9 -53 13 -101 52 -28 23 -42 30 -42 20 0 -8 2 -13 5 -10 5 5 45 -22 79 -54 21 -20 21 -21 4 -55 -10 -19 -24 -68 -31 -109 -11 -68 -11 -78 4 -92 9 -9 16 -13 16 -8 0 4 5 0 11 -9 5 -10 16 -18 24 -18 7 0 15 -5 17 -11 7 -20 132 46 178 95 66 70 88 79 142 60 87 -30 248 -120 758 -422 513 -304 680 -408 680 -423 0 -5 -29 -51 -65 -104 -35 -52 -62 -95 -60 -95 6 0 133 175 210 290 39 57 91 126 117 154 l46 51 69 -24 c83 -29 445 -207 507 -251 46 -31 64 -64 52 -97 -5 -16 -4 -16 8 1 24 30 77 187 82 241 6 61 -9 94 -53 116 -18 9 -30 19 -27 21 3 3 -6 6 -20 6 -13 0 -39 7 -56 16 -18 9 -41 16 -50 16 -9 0 -20 3 -24 8 -4 4 -11 7 -14 8 -6 1 -39 13 -82 31 -8 3 -19 7 -25 9 -29 9 -113 38 -135 48 -14 5 -29 10 -35 11 -5 0 -13 4 -16 8 -3 5 -15 10 -25 12 -10 2 -20 4 -21 5 -2 2 -6 3 -10 4 -5 1 -12 4 -18 7 -13 8 -64 20 -69 17 -3 -2 -20 11 -38 28 -18 17 -51 36 -73 42 -44 12 -837 223 -1309 348 l-298 79 6 56 c7 57 6 57 -31 88 -21 17 -46 31 -57 31 -16 0 -130 -59 -177 -92 -13 -9 -23 -6 -50 14 -19 14 -142 103 -274 198 -132 96 -312 226 -400 290 -297 218 -295 217 -315 181z"/>
<path d="M13960 2960 c-27 -20 -28 -18 26 -35 13 -4 9 -13 -20 -45 -20 -22 -36 -44 -36 -49 0 -16 -82 -5 -95 12 -12 17 -26 13 -87 -27 -21 -14 -78 -95 -78 -111 0 -1 35 -1 78 0 83 2 112 12 155 56 15 16 34 29 41 29 28 0 46 -12 46 -31 0 -22 6 -23 46 -9 27 9 29 14 30 59 0 28 6 57 13 65 12 14 10 19 -13 37 -14 11 -26 25 -26 31 0 12 -30 37 -45 37 -5 1 -21 -8 -35 -19z"/>
<path d="M14712 2969 c-13 -5 -44 -29 -69 -54 -43 -44 -112 -85 -140 -85 -13 0 -133 -111 -133 -124 0 -10 57 21 120 65 30 21 73 41 95 44 50 9 120 48 141 80 8 13 14 37 12 53 -3 26 -6 29 -26 21z"/>
<path d="M14723 2140 c-4 -16 -8 -18 -20 -9 -11 10 -21 5 -49 -22 -19 -18 -37 -43 -40 -55 -4 -16 -16 -23 -46 -28 -22 -4 -60 -18 -85 -33 -37 -22 -62 -27 -171 -35 -118 -8 -159 -19 -147 -38 3 -5 40 -27 83 -50 74 -40 80 -42 152 -38 115 6 174 37 243 130 30 41 58 84 61 96 4 12 11 22 16 22 5 0 45 -14 90 -30 170 -63 269 -138 441 -338 l47 -54 27 18 c36 23 75 107 75 160 0 54 -22 79 -90 104 -34 12 -64 32 -79 51 -36 46 -77 59 -183 59 -128 0 -163 11 -188 59 -22 44 -35 51 -92 51 -32 0 -41 -4 -45 -20z"/>
<path d="M16013 2031 c-23 -11 -49 -31 -58 -45 -38 -57 -37 -149 2 -187 18 -18 20 -18 67 0 27 10 55 26 61 34 7 9 38 27 71 39 83 31 89 43 51 96 -62 86 -109 101 -194 63z"/>
<path d="M13627 1994 c-45 -30 -50 -48 -40 -144 8 -73 9 -74 40 -83 39 -12 44 -23 29 -68 l-12 -35 88 -17 c49 -10 93 -15 99 -11 6 4 8 34 4 82 -5 56 -2 91 9 126 21 70 12 82 -71 90 -75 8 -93 18 -93 52 0 34 -12 36 -53 8z"/>
<path d="M13220 1947 c0 -3 25 -39 55 -79 30 -40 55 -76 55 -79 0 -4 22 -21 49 -38 58 -38 211 -85 211 -66 0 17 -19 31 -52 39 -20 4 -29 16 -40 48 -10 33 -20 44 -40 50 -16 5 -40 11 -55 16 -19 5 -31 17 -39 40 -5 18 -17 39 -25 47 -15 15 -119 34 -119 22z"/>
<path d="M13439 1395 c-89 -32 -176 -92 -200 -137 -9 -17 -8 -18 8 -10 31 17 215 53 273 54 119 2 207 -38 305 -136 67 -68 119 -152 156 -254 20 -54 34 -22 34 76 0 79 -3 94 -36 162 -59 123 -156 206 -288 246 -57 17 -204 17 -252 -1z"/>
<path d="M12886 848 c-33 -33 -38 -43 -28 -56 23 -34 62 -105 62 -113 0 -13 14 -11 76 7 63 18 173 23 224 10 34 -8 34 -8 18 10 -9 11 -31 47 -48 82 -24 48 -35 62 -53 62 -37 0 -120 -45 -162 -88 l-41 -42 4 69 c6 98 -4 109 -52 59z"/>
</g>
</svg>
